<svg width="14" height="13" viewBox="0 0 14 13" fill="none" xmlns="http://www.w3.org/2000/svg">
<path d="M13.0962 0.908691V11.7915C13.0962 11.9829 13.0141 12.147 12.9048 12.2837C12.768 12.4204 12.604 12.4751 12.4126 12.4751H9.29539V7.71729H10.8813L11.1274 5.88525H9.29539V4.70947C9.29539 4.40869 9.35007 4.18994 9.45945 4.05322C9.59617 3.88916 9.84226 3.80713 10.1977 3.80713H11.1821V2.13916C10.7993 2.11182 10.3071 2.08447 9.76023 2.08447C9.04929 2.08447 8.47507 2.30322 8.03757 2.71338C7.60007 3.15088 7.38132 3.75244 7.38132 4.51807V5.88525H5.79539V7.71729H7.38132V12.4751H1.52976C1.31101 12.4751 1.14695 12.4204 1.03757 12.2837C0.900855 12.147 0.846167 11.9829 0.846167 11.7915V0.908691C0.846167 0.717285 0.900855 0.553223 1.03757 0.416504C1.14695 0.307129 1.31101 0.225098 1.52976 0.225098H12.4126C12.5766 0.225098 12.7407 0.307129 12.8774 0.416504C13.0141 0.553223 13.0962 0.717285 13.0962 0.908691Z" fill="#E60716"/>
</svg>
