<svg width="13" height="13" viewBox="0 0 13 13" fill="none" xmlns="http://www.w3.org/2000/svg">
<path d="M6.14517 3.20557C6.69204 3.20557 7.21157 3.36963 7.70376 3.64307C8.19595 3.9165 8.57876 4.29932 8.8522 4.7915C9.12563 5.28369 9.2897 5.80322 9.2897 6.3501C9.2897 6.92432 9.12563 7.44385 8.8522 7.93604C8.57876 8.42822 8.19595 8.81104 7.70376 9.08447C7.21157 9.35791 6.69204 9.49463 6.14517 9.49463C5.57095 9.49463 5.05142 9.35791 4.55923 9.08447C4.06704 8.81104 3.68423 8.42822 3.41079 7.93604C3.13735 7.44385 3.00063 6.92432 3.00063 6.3501C3.00063 5.80322 3.13735 5.28369 3.41079 4.7915C3.68423 4.29932 4.06704 3.9165 4.55923 3.64307C5.05142 3.36963 5.57095 3.20557 6.14517 3.20557ZM6.14517 8.40088C6.69204 8.40088 7.18423 8.20947 7.59438 7.79932C7.9772 7.4165 8.19595 6.92432 8.19595 6.3501C8.19595 5.80322 7.9772 5.31104 7.59438 4.90088C7.18423 4.51807 6.69204 4.29932 6.14517 4.29932C5.57095 4.29932 5.07876 4.51807 4.69595 4.90088C4.28579 5.31104 4.09438 5.80322 4.09438 6.3501C4.09438 6.92432 4.28579 7.4165 4.69595 7.79932C5.07876 8.20947 5.57095 8.40088 6.14517 8.40088ZM10.1647 3.06885C10.1647 2.87744 10.0827 2.71338 9.94595 2.54932C9.78188 2.4126 9.61782 2.33057 9.42642 2.33057C9.20767 2.33057 9.0436 2.4126 8.90688 2.54932C8.74282 2.71338 8.68813 2.87744 8.68813 3.06885C8.68813 3.2876 8.74282 3.45166 8.90688 3.58838C9.0436 3.75244 9.20767 3.80713 9.42642 3.80713C9.61782 3.80713 9.78188 3.75244 9.9186 3.58838C10.0553 3.45166 10.1374 3.2876 10.1647 3.06885ZM12.2428 3.80713C12.2428 4.32666 12.2702 5.17432 12.2702 6.3501C12.2702 7.55322 12.2428 8.40088 12.2155 8.92041C12.1881 9.43994 12.1061 9.87744 11.9967 10.2603C11.8327 10.7251 11.5592 11.1353 11.2311 11.4634C10.903 11.7915 10.4928 12.0376 10.0553 12.2017C9.67251 12.3384 9.20767 12.4204 8.68813 12.4478C8.1686 12.4751 7.32095 12.4751 6.14517 12.4751C4.94204 12.4751 4.09438 12.4751 3.57485 12.4478C3.05532 12.4204 2.61782 12.3384 2.23501 12.1743C1.77017 12.0376 1.36001 11.7915 1.03188 11.4634C0.70376 11.1353 0.457666 10.7251 0.293603 10.2603C0.156885 9.87744 0.0748534 9.43994 0.0475097 8.92041C0.0201659 8.40088 0.0201659 7.55322 0.0201659 6.3501C0.0201659 5.17432 0.0201659 4.32666 0.0475097 3.80713C0.0748534 3.2876 0.156885 2.82275 0.293603 2.43994C0.457666 2.00244 0.70376 1.59229 1.03188 1.26416C1.36001 0.936035 1.77017 0.662598 2.23501 0.498535C2.61782 0.38916 3.05532 0.307129 3.57485 0.279785C4.09438 0.252441 4.94204 0.225098 6.14517 0.225098C7.32095 0.225098 8.1686 0.252441 8.68813 0.279785C9.20767 0.307129 9.67251 0.38916 10.0553 0.498535C10.4928 0.662598 10.903 0.936035 11.2311 1.26416C11.5592 1.59229 11.8327 2.00244 11.9967 2.43994C12.1061 2.82275 12.1881 3.2876 12.2428 3.80713ZM10.9303 9.95947C11.0397 9.65869 11.0944 9.1665 11.1491 8.48291C11.1491 8.1001 11.1764 7.52588 11.1764 6.7876V5.9126C11.1764 5.17432 11.1491 4.6001 11.1491 4.21729C11.0944 3.53369 11.0397 3.0415 10.9303 2.74072C10.7116 2.19385 10.3014 1.78369 9.75454 1.56494C9.45376 1.45557 8.96157 1.40088 8.27798 1.34619C7.86782 1.34619 7.2936 1.31885 6.58267 1.31885H5.70767C4.96938 1.31885 4.39517 1.34619 4.01235 1.34619C3.32876 1.40088 2.83657 1.45557 2.53579 1.56494C1.96157 1.78369 1.57876 2.19385 1.36001 2.74072C1.25063 3.0415 1.1686 3.53369 1.14126 4.21729C1.11392 4.62744 1.11392 5.20166 1.11392 5.9126V6.7876C1.11392 7.52588 1.11392 8.1001 1.14126 8.48291C1.1686 9.1665 1.25063 9.65869 1.36001 9.95947C1.57876 10.5337 1.98892 10.9165 2.53579 11.1353C2.83657 11.2446 3.32876 11.3267 4.01235 11.354C4.39517 11.3813 4.96938 11.3813 5.70767 11.3813H6.58267C7.32095 11.3813 7.89517 11.3813 8.27798 11.354C8.96157 11.3267 9.45376 11.2446 9.75454 11.1353C10.3014 10.9165 10.7116 10.5063 10.9303 9.95947Z" fill="#E60716"/>
</svg>
