<svg width="15" height="13" viewBox="0 0 15 13" fill="none" xmlns="http://www.w3.org/2000/svg">
<path d="M13.332 3.50635C13.332 3.58838 13.3594 3.69775 13.3594 3.86182C13.3594 5.17432 13.0313 6.45947 12.4023 7.6626C11.7461 8.9751 10.8164 9.98682 9.64063 10.7524C8.32813 11.6274 6.85157 12.0376 5.1836 12.0376C3.57032 12.0376 2.09376 11.6274 0.781256 10.7524C0.972662 10.7798 1.19141 10.7798 1.46485 10.7798C2.77735 10.7798 3.98047 10.3696 5.04688 9.54932C4.39063 9.54932 3.84376 9.38525 3.35157 9.00244C2.85938 8.61963 2.53126 8.15479 2.36719 7.58057C2.53126 7.60791 2.72266 7.60791 2.88672 7.60791C3.13282 7.60791 3.37891 7.58057 3.65235 7.52588C2.9961 7.38916 2.44922 7.06104 2.01172 6.51416C1.57422 5.99463 1.35547 5.39307 1.35547 4.70947V4.65479C1.73829 4.90088 2.17579 5.0376 2.64063 5.0376C2.25782 4.76416 1.92969 4.43604 1.71094 3.99854C1.46485 3.58838 1.35547 3.12354 1.35547 2.63135C1.35547 2.13916 1.49219 1.64697 1.76563 1.18213C2.47657 2.08447 3.32422 2.79541 4.36329 3.31494C5.40235 3.86182 6.4961 4.13525 7.67188 4.18994C7.61719 3.97119 7.61719 3.75244 7.61719 3.53369C7.61719 3.0415 7.72657 2.54932 8.00001 2.11182C8.2461 1.67432 8.60157 1.31885 9.03907 1.04541C9.47657 0.799316 9.94141 0.662598 10.4609 0.662598C10.8711 0.662598 11.2539 0.744629 11.6094 0.908691C11.9648 1.07275 12.293 1.2915 12.5664 1.56494C13.2227 1.45557 13.8242 1.20947 14.3984 0.881348C14.1797 1.56494 13.7422 2.08447 13.1406 2.46729C13.6875 2.4126 14.2344 2.24854 14.7813 2.00244C14.3711 2.604 13.8789 3.09619 13.332 3.50635Z" fill="#E60716"/>
</svg>
